<svg xmlns="http://www.w3.org/2000/svg" width="30" height="28.078" viewBox="0 0 30 28.078"><defs><style>.a{fill:#fff;}</style></defs><g transform="translate(-2.45 -2.7)"><path class="a" d="M14.237,28.078a.444.444,0,0,1-.272-.071c-.294-.23-.186-.79-.061-1.443.2-1.047.454-2.351-1.041-2.664-.165-.018-.334-.039-.5-.064C5.2,22.821,0,17.847,0,12.015,0,5.387,6.729,0,15,0S30,5.387,30,12.015a10.267,10.267,0,0,1-2.24,6.312,2.887,2.887,0,0,1-.278.345,12.85,12.85,0,0,1-1.637,1.639C21.838,24.014,15.763,28.078,14.237,28.078Zm7-19.588a.785.785,0,0,0-.78.786v5.8a.785.785,0,0,0,.78.787h3.027a.785.785,0,0,0,.78-.787V15.01a.783.783,0,0,0-.78-.785H22.082V12.99h2.179a.783.783,0,0,0,.78-.785v-.063a.783.783,0,0,0-.78-.785H22.082V10.119h2.179a.781.781,0,0,0,.78-.78V9.276a.785.785,0,0,0-.78-.786ZM15.1,11.59l.005.008,2.841,3.884c.019.027.037.05.058.077a.61.61,0,0,0,.3.223.693.693,0,0,0,.3.063h.067a.8.8,0,0,0,.364-.092.465.465,0,0,0,.19-.144.767.767,0,0,0,.226-.547V9.26a.782.782,0,0,0-.78-.782H18.6a.782.782,0,0,0-.78.782v3.407L14.994,8.874a.783.783,0,0,0-.68-.4H14.25a.783.783,0,0,0-.783.782v5.8a.785.785,0,0,0,.783.784h.064a.785.785,0,0,0,.783-.784V11.59ZM11.517,8.478a.782.782,0,0,0-.78.782v5.8a.783.783,0,0,0,.78.784h.067a.783.783,0,0,0,.78-.784V9.26a.782.782,0,0,0-.78-.782Zm-5.221,0a.782.782,0,0,0-.781.782v5.8a.783.783,0,0,0,.781.784H9.322a.783.783,0,0,0,.78-.784v-.068a.781.781,0,0,0-.78-.78H7.143V9.26a.782.782,0,0,0-.781-.782Z" transform="translate(2.45 2.7)"/></g></svg>