<svg xmlns="http://www.w3.org/2000/svg" xmlns:xlink="http://www.w3.org/1999/xlink" width="1380.077" height="2296.565" viewBox="0 0 1380.077 2296.565"><defs><style>.a{fill:url(#a);}</style><linearGradient id="a" x1="0.5" y1="0.232" x2="0.5" y2="1" gradientUnits="objectBoundingBox"><stop offset="0" stop-color="#e72c30"/><stop offset="1" stop-color="#e4e311"/></linearGradient></defs><path class="a" d="M2119.174,1901H1710.7L2388.78,303.548a705.8,705.8,0,0,1-117.74-44.827,589.515,589.515,0,0,1-99.286-61.047c-29.629-22.721-55.513-47.617-76.934-74-21.673-26.69-38.727-54.843-50.686-83.677H3090.78a251.09,251.09,0,0,1-12.213,45.751,267.633,267.633,0,0,1-20.492,42.9c-16.087,27.243-37.414,52.8-63.39,75.962-25.594,22.822-55.61,43.242-89.213,60.693A570.6,570.6,0,0,1,2795.3,308.144L2119.174,1901ZM2717.245-369H2317.159a676.757,676.757,0,0,1,94.376-19.734,751.951,751.951,0,0,1,101.662-6.83,801.356,801.356,0,0,1,83.406,4.4c20.641,2.169,41.366,5.16,61.6,8.89,19.882,3.665,39.744,8.129,59.033,13.269h.007Z" transform="translate(-1710.703 395.564)"/></svg>